# xmcd
#
# Track frame offsets:
#	150
#	16898
#	35570
#	52260
#	65187
#	80346
#	97619
#	114288
#	130685
#	148397
#	167608
#	187542
#	203661
#	220431
#	235630
#	252554
#
# Disc length: 3584
#
# Revision: 2
# Processed by: cddbd v1.5.1PL0 Copyright (c) Steve Scherf et al.
# Submitted via: CDValet v3.01 - Copyright (c) 1997 Greg Leichner
# Normalized: r1:TDELIM( - )
#
DISCID=da0dfe10
DTITLE=The Best From The West Vol. 4
DYEAR=1900
DGENRE=
TTITLE0=Vanessa Mae - Storm
TTITLE1=Duran Duran - Out Of My Mind
TTITLE2=The Rolling Stones - Anybody Seen My Baby
TTITLE3=Spice Girl - Spice Up Your Life
TTITLE4=Fool's Garden - Why Did She Go
TTITLE5=Robbie Williams - Old Before I Die
TTITLE6=Per Gessle - Do You Wanna Be My Baby
TTITLE7=Dubstar - No More Talk
TTITLE8=Meredith Brooks - Bitch
TTITLE9=Joe Cocker - N'oubliiz Jamais
TTITLE10=Bob Marley - Fallin In And Out Of Love
TTITLE11=Eternal Featuring Bebe Winans - I Wanna Be The Only One
TTITLE12=Backstreet Boys - Everybody (Backstreet's Back)
TTITLE13=Chris Norman - Baby I Miss You
TTITLE14=Michael Learns To Rock - Paint My Love
TTITLE15=E-Rotic - The Winner Takes It All
EXTD=
EXTT0=
EXTT1=
EXTT2=
EXTT3=
EXTT4=
EXTT5=
EXTT6=
EXTT7=
EXTT8=
EXTT9=
EXTT10=
EXTT11=
EXTT12=
EXTT13=
EXTT14=
EXTT15=
PLAYORDER=
